# xmcd
#
# Track frame offsets:
# 150
# 24112
# 37324
# 61621
# 93586
# 127676
# 172346
# 196406
# 226175
# 265260
# 290038
#
# Disc length: 4458 seconds
#
#
# Revision: 3
# Processed by: cddbd v1.5.1PL2 Copyright (c) Steve Scherf et al.
# Submitted via: FreeRIP 2.943 
#
DISCID=9611680b
DTITLE=Ouvir e Crer - Único Desejo
DYEAR=2004
DGENRE=Gospel and Religious
TTITLE0=Até te encontrar
TTITLE1=Eternamente apaixonado
TTITLE2=Leva-me/O Espírito e a Noiva/E Ele vem
TTITLE3=Ele vem
TTITLE4=Ministração
TTITLE5=Único desejo
TTITLE6=Vestes de Louvor
TTITLE7=Sou Teu Jardim
TTITLE8=Santo/Não há Ninguém como Tu
TTITLE9=Lugar Santo
TTITLE10=Ao que se Assenta/Pois Tu És Santo
EXTD=
EXTT0=
EXTT1=
EXTT2=
EXTT3=
EXTT4=
EXTT5=
EXTT6=
EXTT7=
EXTT8=
EXTT9=
EXTT10=
PLAYORDER=
